<?xml version="1.0" standalone="no"?>
<!DOCTYPE svg PUBLIC "-//W3C//DTD SVG 20010904//EN"
 "http://www.w3.org/TR/2001/REC-SVG-20010904/DTD/svg10.dtd">
<svg version="1.0" xmlns="http://www.w3.org/2000/svg"
 width="512.000000pt" height="512.000000pt" viewBox="0 0 512.000000 512.000000"
 preserveAspectRatio="xMidYMid meet">

<g transform="translate(0.000000,512.000000) scale(0.100000,-0.100000)"
fill="#000000" stroke="none">
<path d="M2463 4600 c-67 -12 -169 -51 -224 -85 -55 -34 -141 -117 -179 -171
-41 -58 -1678 -2879 -1706 -2939 -39 -83 -57 -186 -52 -289 14 -262 189 -485
443 -567 l70 -23 1675 -8 c921 -5 1708 -6 1749 -3 253 20 460 180 549 427 23
64 27 88 27 198 -1 108 -4 135 -25 195 -16 43 -349 637 -865 1540 -904 1582
-881 1544 -1013 1631 -118 79 -310 119 -449 94z m269 -288 c34 -17 80 -48 100
-69 40 -41 1676 -2890 1710 -2978 26 -67 21 -207 -10 -277 -24 -55 -91 -130
-143 -164 -89 -56 -55 -54 -1158 -53 -559 1 -1326 4 -1706 8 l-690 6 -61 28
c-182 84 -268 310 -186 488 37 80 1670 2883 1702 2922 104 124 293 163 442 89z"/>
<path d="M2501 3238 c-13 -7 -34 -26 -45 -41 -21 -28 -21 -38 -24 -565 -2
-496 -1 -540 15 -571 25 -49 63 -74 113 -74 50 0 88 25 112 74 16 31 18 79 18
557 0 556 -1 563 -49 606 -26 24 -107 32 -140 14z"/>
<path d="M2525 1690 c-100 -23 -158 -125 -126 -223 15 -46 69 -93 121 -107 52
-14 109 1 155 41 126 111 14 327 -150 289z"/>
</g>
</svg>
